<svg xmlns="http://www.w3.org/2000/svg" width="21.633" height="18.567" viewBox="0 0 21.633 18.567"><path d="M20.422,42.625h-.515V39.532a2.292,2.292,0,0,0-2.289-2.289h-.475l0-1.149A1.545,1.545,0,0,0,15.6,34.55H1.877A1.878,1.878,0,0,0,0,36.4V51.573a1.545,1.545,0,0,0,1.544,1.544H17.622a2.292,2.292,0,0,0,2.289-2.289v-3.1h.515a1.208,1.208,0,0,0,1.207-1.207V43.831A1.215,1.215,0,0,0,20.422,42.625ZM1.877,35.615H15.6a.479.479,0,0,1,.479.475l0,1.154H1.877a.814.814,0,0,1,0-1.628ZM18.842,50.824a1.227,1.227,0,0,1-1.225,1.225H1.54a.48.48,0,0,1-.479-.479V38.121a1.869,1.869,0,0,0,.816.186H17.618a1.227,1.227,0,0,1,1.225,1.225v3.092H15.209A1.208,1.208,0,0,0,14,43.831v2.693a1.208,1.208,0,0,0,1.207,1.207h3.634Zm1.721-4.3a.14.14,0,0,1-.142.142H15.213a.14.14,0,0,1-.142-.142V43.831a.143.143,0,0,1,.142-.142h5.209a.143.143,0,0,1,.142.142v2.693Z" transform="translate(0 -34.55)"/></svg>