<svg xmlns="http://www.w3.org/2000/svg" width="47.784" height="53.697" viewBox="0 0 47.784 53.697"><defs><style>.a{fill:#aba9a9;}</style></defs><g transform="translate(-23.357)"><path class="a" d="M108.328,231.583a1.839,1.839,0,0,1,1.309.542,1.013,1.013,0,0,0,1.432-1.432,3.876,3.876,0,0,0-5.481,0,1.013,1.013,0,0,0,1.432,1.432A1.838,1.838,0,0,1,108.328,231.583Z" transform="translate(-71.564 -200.503)"/><path class="a" d="M271.251,230.706a1.013,1.013,0,1,0,1.432,1.432,1.853,1.853,0,0,1,2.617,0,1.013,1.013,0,0,0,1.432-1.432A3.88,3.88,0,0,0,271.251,230.706Z" transform="translate(-216.259 -200.515)"/><path class="a" d="M138.359,315.4a14.836,14.836,0,0,1-20.957,0,1.013,1.013,0,1,0-1.432,1.432,16.863,16.863,0,0,0,23.821,0,1.013,1.013,0,1,0-1.432-1.432Z" transform="translate(-80.632 -275.221)"/><path class="a" d="M71.141,32.171a5.624,5.624,0,0,0-4.6-5.522V9.71a6.54,6.54,0,0,0-8.71-6.169L51.471,1.382A25.225,25.225,0,0,0,36.6.89C30.261,2.64,26.626,6.339,26.065,11.6a7.687,7.687,0,0,0-1.159,2.184l-.493,1.459A1.758,1.758,0,0,0,27.3,17.067a3.533,3.533,0,0,1,.659-.5V26.649a5.614,5.614,0,0,0,.317,11.093,19.444,19.444,0,0,0,5.317,10.216A19.048,19.048,0,0,0,47.249,53.7h0a19.3,19.3,0,0,0,19-15.958A5.623,5.623,0,0,0,71.141,32.171ZM62.494,5.948A4.446,4.446,0,0,1,64.513,9.71V22.96a6.579,6.579,0,0,1-5.556-6.49L58.873,5.337A4.434,4.434,0,0,1,62.494,5.948ZM26.627,15.012l.2-.582A5.672,5.672,0,0,1,34.592,11.1a7.743,7.743,0,0,0,9.014-1.877l.251-.284A1.013,1.013,0,0,0,42.34,7.6l-.251.284a5.705,5.705,0,0,1-6.642,1.383,7.706,7.706,0,0,0-6.279-.1c-.183.078-.361.166-.536.257,1.177-3.138,4.026-5.347,8.507-6.584A23.208,23.208,0,0,1,50.82,3.3l6.028,2.046.079,5.232a17.8,17.8,0,0,1-11.059,6.969,17.8,17.8,0,0,1-13.121-2.591A5.487,5.487,0,0,0,26.627,15.012Zm-1.245,17.16a3.6,3.6,0,0,1,2.578-3.444v5.488q0,.711.05,1.414A3.6,3.6,0,0,1,25.382,32.171ZM59.456,46.615a17.151,17.151,0,0,1-12.206,5.056h0a17.04,17.04,0,0,1-12.213-5.135,17.447,17.447,0,0,1-5.05-12.321V16.089a3.5,3.5,0,0,1,1.655.563,19.818,19.818,0,0,0,14.606,2.885,19.8,19.8,0,0,0,10.685-5.814V16.47A8.6,8.6,0,0,0,64.512,25v9.405A17.15,17.15,0,0,1,59.456,46.615ZM66.5,35.627c.025-.4.039-.811.039-1.219v-5.68a3.589,3.589,0,0,1-.039,6.9Z" transform="translate(0 0)"/></g></svg>