<svg xmlns="http://www.w3.org/2000/svg" width="52.678" height="58.633" viewBox="0 0 52.678 58.633"><defs><style>.a{fill:#aba9a9;}</style></defs><g transform="translate(0)"><path class="a" d="M45.234,3.589a1.145,1.145,0,0,0-.411-.142L37.064,2.339,33.851.2A1.166,1.166,0,0,0,33.2,0H19.467a1.161,1.161,0,0,0-.642.2L15.613,2.339,7.854,3.447a1.142,1.142,0,0,0-.411.142A10.956,10.956,0,0,0,4.095,6.7,1.145,1.145,0,1,0,5.948,8.043,8.837,8.837,0,0,1,8.405,5.682l6.534-.934.268,6.582a1.146,1.146,0,0,0,.4.824l1.554,1.327-2.085,2.964a1.146,1.146,0,0,0,.035,1.365L25.194,30.685V56.342H10.134A1.147,1.147,0,0,1,8.989,55.2V44.89h7.477a1.145,1.145,0,0,0,0-2.29H8.989V16.548a1.145,1.145,0,1,0-2.29,0V47.181H2.29V22.331a35.525,35.525,0,0,1,.361-5.1A1.145,1.145,0,0,0,.384,16.9,37.856,37.856,0,0,0,0,22.331v24.85a2.293,2.293,0,0,0,2.29,2.29H6.7V55.2a3.439,3.439,0,0,0,3.435,3.436H31.091a1.145,1.145,0,0,0,0-2.29H27.484V30.682l10.08-12.87a1.146,1.146,0,0,0,.035-1.365l-2.085-2.964,1.554-1.327a1.146,1.146,0,0,0,.4-.824l.268-6.582,6.534.934c3.722,2.31,6.115,8.8,6.115,16.649v24.85H45.978V16.548a1.145,1.145,0,1,0-2.29,0V42.6H36.21a1.145,1.145,0,1,0,0,2.29h7.477V55.2a1.146,1.146,0,0,1-1.145,1.145H41.4a1.145,1.145,0,1,0,0,2.29h1.145A3.439,3.439,0,0,0,45.978,55.2V49.471h4.409a2.293,2.293,0,0,0,2.29-2.29V22.331c0-6.983-1.955-15.573-7.444-18.742Zm-24.32-1.3H31.763L26.339,25.3ZM17.44,17.069l2.2-3.122a1.145,1.145,0,0,0-.193-1.53l-1.967-1.679L17.2,4.032l1.529-1.019,5.3,22.47Zm15.6-3.122,2.2,3.122L28.65,25.48l5.3-22.467,1.529,1.019L35.2,10.738l-1.967,1.679a1.146,1.146,0,0,0-.193,1.53Zm0,0" transform="translate(0 0)"/><path d="M307.646,492h0a1.145,1.145,0,1,0,1.146,1.145A1.145,1.145,0,0,0,307.645,492Zm0,0" transform="translate(-271.401 -435.658)"/><path d="M14.362,97.14a1.144,1.144,0,0,0,1.464-.693h0a1.145,1.145,0,1,0-1.464.694Zm0,0" transform="translate(-12.044 -84.046)"/></g></svg>