<svg xmlns="http://www.w3.org/2000/svg" width="35.737" height="44.001" viewBox="0 0 35.737 44.001"><defs><style>.a{fill:#aba9a9;}</style></defs><g transform="translate(0.003 0.001)"><path class="a" d="M223.428,154.7a1.03,1.03,0,0,0-1.03,1.03v19.476a1.03,1.03,0,1,0,2.061,0V155.733A1.03,1.03,0,0,0,223.428,154.7Zm0,0" transform="translate(-199.483 -138.763)"/><path class="a" d="M105.428,154.7a1.03,1.03,0,0,0-1.03,1.03v19.476a1.03,1.03,0,1,0,2.061,0V155.733A1.03,1.03,0,0,0,105.428,154.7Zm0,0" transform="translate(-93.643 -138.763)"/><path class="a" d="M2.923,13.1V38.487a5.685,5.685,0,0,0,1.512,3.921A5.075,5.075,0,0,0,8.117,44h19.5A5.073,5.073,0,0,0,31.3,42.408a5.685,5.685,0,0,0,1.511-3.921V13.1A3.936,3.936,0,0,0,31.8,5.357H26.521V4.069A4.048,4.048,0,0,0,22.441,0H13.29a4.048,4.048,0,0,0-4.081,4.07V5.357H3.933A3.936,3.936,0,0,0,2.923,13.1Zm24.69,28.841H8.117a3.264,3.264,0,0,1-3.132-3.452v-25.3H30.746v25.3a3.264,3.264,0,0,1-3.132,3.452ZM11.27,4.069A1.985,1.985,0,0,1,13.29,2.06h9.15a1.985,1.985,0,0,1,2.02,2.009V5.357H11.27ZM3.933,7.418H31.8a1.855,1.855,0,0,1,0,3.71H3.933a1.855,1.855,0,0,1,0-3.71Zm0,0" transform="translate(0 0)"/><path class="a" d="M164.428,154.7a1.03,1.03,0,0,0-1.03,1.03v19.476a1.03,1.03,0,1,0,2.061,0V155.733A1.03,1.03,0,0,0,164.428,154.7Zm0,0" transform="translate(-146.563 -138.763)"/></g></svg>