<svg xmlns="http://www.w3.org/2000/svg" width="70.167" height="78.248" viewBox="0 0 70.167 78.248"><defs><style>.a{fill:#aba9a9;}</style></defs><path class="a" d="M70.327,62c-11.8-11.8-21.373-28.556-22.643-30.825V26.048a29.932,29.932,0,0,1,.645-4.924,1.163,1.163,0,1,0-2.285-.436c-.331,1.728-.538,3.114-.632,4.2H25.753A101.551,101.551,0,0,0,23.175,12.17,3.45,3.45,0,0,1,25.2,10.176c3-1.113,8.1,1.169,9.807,2.144a1.166,1.166,0,0,0,1.152,0c1.711-.974,6.806-3.259,9.81-2.144A3.463,3.463,0,0,1,48,12.17c-.174.664-.555,2.159-.971,3.944a1.163,1.163,0,1,0,2.266.529c.554-2.376,1.044-4.227,1.05-4.245a1.172,1.172,0,0,0-.029-.688,5.961,5.961,0,0,0-2.477-3.2A11.985,11.985,0,0,0,43.949.28a1.163,1.163,0,0,0-1.758.291,20.942,20.942,0,0,0-2.626,7.766c-.177.058-.355.115-.537.179a26.792,26.792,0,0,0-3.445,1.473,26.915,26.915,0,0,0-3.446-1.473c-.18-.063-.358-.121-.537-.179A20.961,20.961,0,0,0,28.977.572,1.163,1.163,0,0,0,27.22.28,11.976,11.976,0,0,0,23.335,8.51a5.961,5.961,0,0,0-2.477,3.2,1.162,1.162,0,0,0-.028.688c.027.1,2.655,10.043,2.655,13.65v5.125C22.213,33.442,12.644,50.2.841,62A1.165,1.165,0,0,0,.927,63.72a49.938,49.938,0,0,0,7.805,4.926,0,0,0,0,0,0,0,1.162,1.162,0,0,0,.236,1.666,38.993,38.993,0,0,0,5.953,3.3A1.163,1.163,0,1,0,15.89,71.5a43.264,43.264,0,0,1-4.554-2.417c9.469-12.423,16.876-29.5,16.951-29.677a1.163,1.163,0,1,0-2.136-.919c-.073.167-7.023,16.184-15.986,28.281a54.8,54.8,0,0,1-6.739-4.079c11.119-11.465,20.082-26.836,21.9-30.052H45.838c1.823,3.215,10.786,18.587,21.9,30.052A54.551,54.551,0,0,1,61,66.768c-8.965-12.1-15.915-28.113-15.988-28.281a1.162,1.162,0,1,0-2.135.919c.076.176,7.483,17.252,16.951,29.676a48.151,48.151,0,0,1-24.247,6.84,46.466,46.466,0,0,1-15.479-2.716,1.163,1.163,0,0,0-.774,2.195,48.823,48.823,0,0,0,16.253,2.848A49.211,49.211,0,0,0,62.2,70.315a1.164,1.164,0,0,0,.238-1.666l0,0a49.894,49.894,0,0,0,7.8-4.926A1.161,1.161,0,0,0,70.327,62ZM43.483,3.137a9.94,9.94,0,0,1,1.9,4.507,10.715,10.715,0,0,0-3.406.093,18.029,18.029,0,0,1,1.5-4.6Zm-15.8,0a18.1,18.1,0,0,1,1.5,4.6,10.719,10.719,0,0,0-3.406-.093,9.927,9.927,0,0,1,1.9-4.507ZM45.357,30.311H25.811v-3.1H45.357Zm0,0" transform="translate(-0.501 -0.001)"/></svg>