<svg xmlns="http://www.w3.org/2000/svg" width="55.5" height="55.497" viewBox="0 0 55.5 55.497"><defs><style>.a{fill:#aba9a9;}</style></defs><g transform="translate(0 -0.001)"><path class="a" d="M55.21,37.724a24.212,24.212,0,0,0-6.035-13.377,17.52,17.52,0,0,0-9.5-5.37V11.924a11.923,11.923,0,0,0-23.846,0v7.054a17.031,17.031,0,0,0-5.69,2.235,1.084,1.084,0,0,0,1.138,1.845,15.135,15.135,0,0,1,2.384-1.2V44.828h-.25c-4.925,0-7.205-3.15-8.87-5.45a8.822,8.822,0,0,0-1.972-2.223,23.541,23.541,0,0,1,2.478-7.33,1.084,1.084,0,1,0-1.9-1.036A25.907,25.907,0,0,0,.29,37.724l0,.029h0a54.3,54.3,0,0,0,.039,11.3c.076,1.028.154,2.091.215,3.154A3.41,3.41,0,0,0,3.862,55.5H51.637a3.41,3.41,0,0,0,3.323-3.289c.061-1.062.139-2.125.215-3.153a54.157,54.157,0,0,0,.035-11.332Zm-2.276-.569a8.815,8.815,0,0,0-1.974,2.224c-1.665,2.3-3.944,5.45-8.869,5.45h-.25V21.891c5.647,2.258,9.879,7.891,11.093,15.264Zm-17.6,7.674V31.652h4.336V44.828Zm-13.007,0V20.812H33.169V44.828Zm-6.5-17.513h4.336v2.168H15.826Zm17.343-8.672H22.33v-6.72a5.419,5.419,0,0,1,10.839,0Zm6.5,2.564v3.94H35.337V20.812h.872a15.215,15.215,0,0,1,3.464.4Zm-4.336,6.108h4.336v2.168H35.337ZM17.994,11.924a9.755,9.755,0,0,1,19.511,0V18.69q-.642-.045-1.3-.046h-.872v-6.72a7.587,7.587,0,0,0-15.175,0v6.72H19.29q-.654,0-1.3.046Zm1.3,8.888h.872v4.336H15.826V21.195a15.63,15.63,0,0,1,3.464-.383Zm-3.464,10.84h4.336V44.828H15.826ZM53.013,48.9c-.076,1.036-.155,2.108-.217,3.188a1.23,1.23,0,0,1-1.159,1.245H3.862A1.23,1.23,0,0,1,2.7,52.084C2.642,51,2.563,49.932,2.486,48.9a63.193,63.193,0,0,1-.235-8.969c.188.247.374.5.532.723C4.5,43.023,7.377,47,13.409,47H42.091C48.123,47,51,43.023,52.716,40.65c.158-.218.344-.476.532-.723a63.2,63.2,0,0,1-.235,8.97Zm0,0" transform="translate(0)"/><path class="a" d="M347.464,451.98h0a1.084,1.084,0,1,0,1.084,1.084A1.084,1.084,0,0,0,347.463,451.98Zm0,0" transform="translate(-308.832 -402.986)"/><path class="a" d="M398.42,451.98h-5.961a1.084,1.084,0,1,0,0,2.168h5.961a1.084,1.084,0,1,0,0-2.168Zm0,0" transform="translate(-348.951 -402.986)"/><path class="a" d="M54.333,225.195a1.084,1.084,0,0,0,1.526-.139h0a1.084,1.084,0,1,0-1.527.14Zm0,0" transform="translate(-48.096 -199.075)"/></g></svg>