<svg xmlns="http://www.w3.org/2000/svg" width="20.801" height="18.103" viewBox="0 0 20.801 18.103"><g transform="translate(0 0)"><path d="M17.616,7.721a6.126,6.126,0,0,0-7.219.956A6.138,6.138,0,0,0,0,13.095a5.854,5.854,0,0,0,.289,1.839c.988,4.463,9.428,9.808,9.788,10.036a.622.622,0,0,0,.644,0c.36-.228,8.8-5.568,9.77-9.975a5.975,5.975,0,0,0,.31-1.9A6.159,6.159,0,0,0,17.616,7.721Zm1.705,6.953c-.781,3.525-7.382,8.048-8.927,9.063-1.544-1.016-8.149-5.543-8.943-9.124A4.75,4.75,0,0,1,1.207,13.1,4.928,4.928,0,0,1,9.931,9.955a.607.607,0,0,0,.466.218.6.6,0,0,0,.465-.22A4.932,4.932,0,0,1,19.59,13.1,5.063,5.063,0,0,1,19.322,14.674Zm-5.3,1.336a.605.605,0,0,1-.6.6H11v2.419a.6.6,0,0,1-1.209,0V16.614H7.372a.6.6,0,0,1,0-1.21H9.79V12.986a.6.6,0,1,1,1.209,0V15.4h2.418A.606.606,0,0,1,14.022,16.01Z" transform="translate(0 -6.957)"/></g></svg>