<svg xmlns="http://www.w3.org/2000/svg" width="61.085" height="59.392" viewBox="0 0 61.085 59.392"><defs><style>.a{fill:#aba9a9;}</style></defs><path class="a" d="M59.893,37.381c-1.146-1.37-3.19-2.2-6.627-2.7-5.915-.856-7.591-2.085-7.743-2.206a.871.871,0,0,0-1-.207.92.92,0,0,0-.538.919,2.418,2.418,0,0,1-.385,1.227c-.6.947-1.862,1.531-3.647,1.688-1.854.163-4.3-1.358-7.059-4.4a61.287,61.287,0,0,1-5.648-7.583c-1.223-1.88-5.586-8.434-8.762-13.2a.907.907,0,1,0-1.51,1.006c3.173,4.762,7.533,11.309,8.75,13.182a62.878,62.878,0,0,0,5.827,7.814c3.2,3.525,6.086,5.2,8.56,4.984,1.652-.145,3.864-.7,5.021-2.523a4.336,4.336,0,0,0,.4-.813,28.356,28.356,0,0,0,7.469,1.9c2.922.423,4.668,1.081,5.5,2.069.714.853.769,2.005.769,3.54a17.63,17.63,0,0,1-.9,4.469,29.464,29.464,0,0,1-5.834,2.265.907.907,0,1,0,.493,1.746,34.287,34.287,0,0,0,4.546-1.612c-.509,1.434-.982,2.615-1.173,3.082-4.48,3.437-14.921,5.541-20.553,5.541-4.518,0-5.533-2.526-6.307-5.132a53.739,53.739,0,0,0,5.942.3,73.314,73.314,0,0,0,13.952-1.315.907.907,0,0,0-.358-1.779,67.45,67.45,0,0,1-20.071.9C24.6,33.062,18.541,26.9,14.212,24.815a3.667,3.667,0,0,0-5.245,3.275L8.7,53.643H6.59c-.4-6.329-1.087-17.278-1.391-22.4a17.822,17.822,0,0,0-1.752-7.1,17.1,17.1,0,0,1-1.633-8.264c0-4.249,2.518-7.863,4.629-10.146a27.8,27.8,0,0,1,4.024-3.56c.812,1.216,2.511,3.761,4.5,6.745a.907.907,0,1,0,1.51-1.007C13.685,3.726,11.465.4,11.465.4A.907.907,0,0,0,10.228.139,28.059,28.059,0,0,0,5.144,4.468C1.779,8.094,0,12.04,0,15.881a18.845,18.845,0,0,0,1.787,9,16.084,16.084,0,0,1,1.6,6.477c.44,7.4,1.681,26.991,1.694,27.188a.907.907,0,0,0,.905.85H9.552a.908.908,0,0,0,.907-.9l.322-30.384a1.854,1.854,0,0,1,.881-1.562,1.8,1.8,0,0,1,1.764-.1c2.355,1.133,4.6,3.326,6.677,6.518,2.891,4.446,5.343,10.7,7.287,18.6,0,.018.009.036.015.054.08.255.158.524.24.808.8,2.772,2.021,6.959,8.2,6.959,5.849,0,17-2.166,21.87-6.083a.9.9,0,0,0,.268-.356c.127-.3,3.1-7.427,3.1-10.869,0-1.795-.089-3.387-1.192-4.7ZM6.839,57.578c-.032-.511-.078-1.235-.134-2.12H8.676l-.022,2.12Zm0,0" transform="translate(0)"/></svg>