<svg xmlns="http://www.w3.org/2000/svg" width="36" height="36" viewBox="0 0 36 36"><defs><style>.a{fill:#fff;}.b{fill:#030104;}</style></defs><circle class="a" cx="18" cy="18" r="18"/><g transform="translate(6 8.6)"><path class="b" d="M11.5,16.9a3.45,3.45,0,1,0,3.45,3.45A3.45,3.45,0,0,0,11.5,16.9Zm9.2-3.45H17.94a1.024,1.024,0,0,1-.908-.655l-.713-2.141A1.025,1.025,0,0,0,15.41,10H7.59a1.024,1.024,0,0,0-.908.655L5.968,12.8a1.025,1.025,0,0,1-.908.654H2.3A2.307,2.307,0,0,0,0,15.75V26.1a2.307,2.307,0,0,0,2.3,2.3H20.7A2.307,2.307,0,0,0,23,26.1V15.75A2.307,2.307,0,0,0,20.7,13.45ZM11.5,26.1a5.75,5.75,0,1,1,5.75-5.75A5.75,5.75,0,0,1,11.5,26.1Zm8.4-8.742a.8.8,0,1,1,.805-.805A.8.8,0,0,1,19.9,17.358Z" transform="translate(0 -10)"/></g></svg>