<svg xmlns="http://www.w3.org/2000/svg" width="60" height="51.832" viewBox="0 0 60 51.832"><defs><style>.a{fill:#aba9a9;}</style></defs><g transform="translate(-0.001 -0.5)"><path class="a" d="M59.935,41.406,56.649,15.052V13.2A12.718,12.718,0,0,0,43.946.5H26.6a1.172,1.172,0,1,0,0,2.344H43.946A10.371,10.371,0,0,1,54.3,13.2v.749H51.844V13.2a7.907,7.907,0,0,0-7.9-7.9H16.057a7.908,7.908,0,0,0-7.9,7.9v.749H5.7V13.2a10.371,10.371,0,0,1,10.36-10.36,1.172,1.172,0,1,0,0-2.344,12.718,12.718,0,0,0-12.7,12.7v1.848L.068,41.406a9.006,9.006,0,0,0,2.314,7.129,11.407,11.407,0,0,0,8.432,3.8H49.188a11.406,11.406,0,0,0,8.432-3.8,9.005,9.005,0,0,0,2.314-7.128ZM10.5,13.2a5.561,5.561,0,0,1,5.555-5.555H43.946A5.561,5.561,0,0,1,49.5,13.2v.75H48.185a1.172,1.172,0,0,0-1.125.845A7.5,7.5,0,0,1,39.9,20.2H20.1a7.5,7.5,0,0,1-7.159-5.4,1.173,1.173,0,0,0-1.125-.845H10.5ZM28.17,34.131h3.662v2.938a.733.733,0,0,1-.724.724H28.894a.733.733,0,0,1-.724-.724ZM33,31.787H27a1.172,1.172,0,0,0-1.172,1.172V34.79H18.939A8.447,8.447,0,0,1,10.5,26.352V16.3h.478A9.862,9.862,0,0,0,20.1,22.543H39.9A9.862,9.862,0,0,0,49.022,16.3H49.5V26.352a8.447,8.447,0,0,1-8.438,8.438H34.176V32.959A1.172,1.172,0,0,0,33,31.787Zm22.859,15.2a9.03,9.03,0,0,1-6.676,3H10.815a9.029,9.029,0,0,1-6.676-3A6.7,6.7,0,0,1,2.394,41.7L5.56,16.3h2.6V26.352A10.794,10.794,0,0,0,18.939,37.134h6.888a3.071,3.071,0,0,0,3.066,3h2.215a3.07,3.07,0,0,0,3.066-3h6.888A10.794,10.794,0,0,0,51.845,26.352V16.3h2.6l3.166,25.4a6.7,6.7,0,0,1-1.745,5.288Zm0,0" transform="translate(0 -0.001)"/><path class="a" d="M310.9,382.8h0a1.172,1.172,0,1,0,1.173,1.172A1.171,1.171,0,0,0,310.9,382.8Zm0,0" transform="translate(-273.432 -337.496)"/><path class="a" d="M362.348,382.8H355.9a1.172,1.172,0,1,0,0,2.344h6.445a1.172,1.172,0,0,0,0-2.344Zm0,0" transform="translate(-313.16 -337.496)"/><path class="a" d="M173.18,2.844a1.172,1.172,0,0,0,0-2.344h0a1.172,1.172,0,0,0,0,2.344Zm0,0" transform="translate(-151.85)"/></g></svg>