<svg xmlns="http://www.w3.org/2000/svg" width="41.241" height="41.22" viewBox="0 0 41.241 41.22"><path d="M32.524,11.915a11.915,11.915,0,1,0-18.656,9.819A20.642,20.642,0,0,0,0,41.219H3.22A17.409,17.409,0,0,1,20.609,23.83,11.928,11.928,0,0,0,32.524,11.915ZM20.609,20.609A8.695,8.695,0,1,1,29.3,11.915,8.7,8.7,0,0,1,20.609,20.609Zm20.632,9.017L33.662,37.2l-2.277-2.277,3.772-3.772H32.365a7.013,7.013,0,0,0-7,7l0,3.067-3.22,0,0-3.067A10.237,10.237,0,0,1,32.365,27.935H35l-3.611-3.611,2.277-2.277Zm0,0"/></svg>