<svg xmlns="http://www.w3.org/2000/svg" width="46.924" height="54.016" viewBox="0 0 46.924 54.016"><g transform="translate(-27.675)"><path d="M178.289,316.473a5.022,5.022,0,0,1-7.094,0,1.025,1.025,0,0,0-1.45,1.45,7.074,7.074,0,0,0,9.993,0,1.025,1.025,0,0,0-1.45-1.45Z" transform="translate(-123.604 -275.66)"/><path d="M74.335,50.983c-2.4-2.659-2.5-9.434-2.219-16.445a5.368,5.368,0,0,0,.364-7.465c.349-7.15.535-11.932-1.734-16.347a18.421,18.421,0,0,0-7.441-7.482A24.355,24.355,0,0,0,50.27.016,14.012,14.012,0,0,0,39.926,5.175a9.92,9.92,0,0,0-8,4.815c-.14.241-.275.488-.4.735-2.269,4.418-2.084,9.2-1.735,16.349a5.368,5.368,0,0,0,.364,7.463c.284,7.011.183,13.787-2.219,16.446a1.025,1.025,0,0,0,.4,1.646,21.633,21.633,0,0,0,7.683,1.386,24.431,24.431,0,0,0,6.343-.857,24.7,24.7,0,0,0,5.784-2.348,18.341,18.341,0,0,0,5.979,0,24.694,24.694,0,0,0,5.783,2.348,24.107,24.107,0,0,0,6.31.858,21.836,21.836,0,0,0,7.716-1.388,1.025,1.025,0,0,0,.4-1.646Zm-4.874-18.25V27.644c0-.013,0-.027,0-.041v-.156a3.331,3.331,0,0,1-.032,6.35C69.45,33.444,69.461,33.09,69.461,32.732ZM33.352,11.662c.111-.216.229-.431.351-.641a7.884,7.884,0,0,1,6.739-3.814h.014a1.026,1.026,0,0,0,.792-.4,11.987,11.987,0,0,1,9.094-4.741A22.311,22.311,0,0,1,62.283,5.02a16.412,16.412,0,0,1,6.641,6.642C70.739,15.2,70.793,19.04,70.5,25.645a5.347,5.347,0,0,0-1.034-.311V24.292a1.025,1.025,0,0,0-2.05,0V26.62c-14.12.151-21.764-6.65-23.8-8.778a1.025,1.025,0,0,0-1.688.32c-1.49,3.623-4.092,5.519-8.19,5.966a1.025,1.025,0,0,0-.914,1.019v.188a5.337,5.337,0,0,0-1.035.312C31.482,19.042,31.536,15.2,33.352,11.662ZM32.846,33.8a3.331,3.331,0,0,1-.032-6.35v5.285C32.815,33.09,32.826,33.444,32.846,33.8Zm-2.5,17.347c1.828-3.12,2.145-8.307,1.913-15.384a5.333,5.333,0,0,0,.842.186A18.385,18.385,0,0,0,45.1,50.033,21.871,21.871,0,0,1,30.342,51.144Zm20.8-2.139A16.291,16.291,0,0,1,34.865,32.732V26.04a10.843,10.843,0,0,0,8.317-5.754,30.149,30.149,0,0,0,7.23,4.815,37.9,37.9,0,0,0,17,3.57v4.062A16.291,16.291,0,0,1,51.138,49.005ZM60.513,51.2a24.257,24.257,0,0,1-3.344-1.163A18.384,18.384,0,0,0,69.179,35.946a5.337,5.337,0,0,0,.841-.186c-.233,7.079.084,12.265,1.913,15.385A20.568,20.568,0,0,1,60.513,51.2Z" transform="translate(0 0)"/><path d="M113.121,224.311a1.025,1.025,0,0,0,1.45,1.45,1.687,1.687,0,0,1,2.383,0,1.025,1.025,0,0,0,1.45-1.45A3.739,3.739,0,0,0,113.121,224.311Z" transform="translate(-74.235 -194.617)"/><path d="M268.419,225.761a1.025,1.025,0,0,0,0-1.45,3.739,3.739,0,0,0-5.282,0,1.025,1.025,0,0,0,1.45,1.45,1.687,1.687,0,0,1,2.383,0,1.025,1.025,0,0,0,1.45,0Z" transform="translate(-205.029 -194.617)"/></g></svg>