<svg xmlns="http://www.w3.org/2000/svg" width="67.265" height="39.414" viewBox="0 0 67.265 39.414"><defs><style>.a{fill:#aba9a9;}</style></defs><g transform="translate(0 -0.5)"><path class="a" d="M67.078,31.084l-1.793-5.291a5.548,5.548,0,0,0-3.6-3.879c-2.091-.788-5.3-.995-10.089-.651-2.1-.575-5.352-1.546-8.809-2.883l.011-.028a1.314,1.314,0,0,0-2.426-1.008l-.018.043C39.225,16.9,38.1,16.376,37,15.815c-.365-.186-.717-.374-1.059-.56l0,0a1.314,1.314,0,0,0-2.2-1.441l-.064.1A18.308,18.308,0,0,1,30.435,11.3l.126-.091a1.314,1.314,0,1,0-1.534-2.133l-.1.07a4.234,4.234,0,0,1-.32-1.1,10.585,10.585,0,0,1,.081-3.532c.2-1.2.44-2.69-1.741-3.615a5,5,0,0,0-4.512.309C20.232,2.43,18.3,5.279,17.455,8.419c-.674-.176-1.374-.373-2.047-.562l-.281-.079a1.314,1.314,0,0,0-.71,2.53l.28.079a27.137,27.137,0,0,0,5.756,1.239,15.218,15.218,0,0,0,1.229,2.737l-.263.189a1.314,1.314,0,1,0,1.534,2.133l.227-.164a20.409,20.409,0,0,0,5.752,4.626l-.1.155a1.314,1.314,0,1,0,2.2,1.441l.252-.385c1.683.8,3.387,1.472,4.99,2.107l.982.392-.014.034A1.314,1.314,0,0,0,39.665,25.9l.01-.025c2.278,1.022,3.833,1.987,4.458,3.236H43.127a1.314,1.314,0,0,0,0,2.628h1.314v5.547H2.628c0-.084,0-5.433,0-5.547H31.3a1.314,1.314,0,1,0,0-2.628H13.189a15.953,15.953,0,0,0-3.624-9.106,11.163,11.163,0,0,0-5.428-3.73c.05-1.937.1-4.286.125-7.533a1.313,1.313,0,0,0-1.3-1.325H2.947a1.314,1.314,0,0,0-1.314,1.3c-.044,5.058-.128,7.8-.21,10.461-.084,2.73-.164,5.32-.175,10.113a1.8,1.8,0,0,0-.852.668,3.528,3.528,0,0,0-.4,2.1V37.03a3.007,3.007,0,0,0,.524,2.217,2.815,2.815,0,0,0,2.287.668H46.732A45.638,45.638,0,0,0,65.277,35.4a3.624,3.624,0,0,0,1.8-4.315ZM7.556,21.7a13.291,13.291,0,0,1,2.995,7.412H3.876c.012-4.618.087-7.06.173-9.85,0-.082.005-.165.007-.248a9.352,9.352,0,0,1,3.5,2.686Zm54.787,3.835A49.34,49.34,0,0,1,55.027,28.1c-.944.247-1.888.447-2.848.6l.487-4.873c7-.418,8.946.562,9.678,1.709ZM22.678,9.9a1.313,1.313,0,0,0-1.62-.935,2.916,2.916,0,0,1-1.03.006c.673-2.407,2.114-4.592,3.683-5.461a2.4,2.4,0,0,1,2.212-.189,2.436,2.436,0,0,1,.264.129c-.011.159-.054.422-.09.643a13.224,13.224,0,0,0-.09,4.318,6.98,6.98,0,0,0,.763,2.3l-2.937,2.113A12.8,12.8,0,0,1,22.678,9.9Zm2.647,5.083,2.97-2.137A20.285,20.285,0,0,0,32.241,16.1l-1.865,2.844A18.134,18.134,0,0,1,25.325,14.979Zm11.912,7.044c-1.481-.587-3.011-1.193-4.5-1.881l1.76-2.684q.631.349,1.307.7c1.16.594,2.353,1.146,3.547,1.659L38.261,22.43l-1.023-.407Zm3.446,1.424,1.1-2.641c3.146,1.22,6.121,2.144,8.271,2.754l-.544,5.452c-.837.063-1.7.094-2.59.1-.622-2.648-3.134-4.272-6.234-5.664Zm23.489,9.568a43.3,43.3,0,0,1-17.1,4.269V31.737c1.283-.01,2.524-.078,3.732-.207.036,0,.072-.007.108-.013a32.983,32.983,0,0,0,4.784-.879A51.343,51.343,0,0,0,63.259,28l1.334,3.937.011.03a1.047,1.047,0,0,1-.432,1.044Zm0,0" transform="translate(0 0)"/><path class="a" d="M275.9,219.6a1.314,1.314,0,0,0-1.314-1.314h0A1.314,1.314,0,1,0,275.9,219.6Zm0,0" transform="translate(-237.368 -189.174)"/><path class="a" d="M58.752,47.643a1.314,1.314,0,0,0,0-2.628h0a1.314,1.314,0,1,0,0,2.628Zm0,0" transform="translate(-49.892 -38.668)"/></g></svg>