<svg xmlns="http://www.w3.org/2000/svg" width="63.799" height="44.85" viewBox="0 0 63.799 44.85"><defs><style>.a{fill:#aba9a9;}</style></defs><g transform="translate(0 -0.5)"><path class="a" d="M350.792,191.242a1.246,1.246,0,1,0,.838,2.347h0a1.246,1.246,0,0,0-.839-2.347Zm0,0" transform="translate(-306.357 -166.911)"/><path class="a" d="M62.589,21.893a8.014,8.014,0,0,0-2.5-2.661L53.413,5.454A8.285,8.285,0,0,0,49.3,1.4a11.366,11.366,0,0,0-4.8-.9L37.718.534a3.728,3.728,0,0,0,.018,7.456h.019l6.774-.034a4.284,4.284,0,0,1,1.686.234.975.975,0,0,1,.468.524l4.28,8.836a26.623,26.623,0,0,0-10.036,3.381,13.836,13.836,0,0,0-6.879,8.315,11.307,11.307,0,0,0-.311,1.715,3.858,3.858,0,0,0-3.679,0,11.306,11.306,0,0,0-.311-1.715,13.836,13.836,0,0,0-6.879-8.315,26.566,26.566,0,0,0-10.038-3.377l4.282-8.841a.975.975,0,0,1,.468-.524,4.294,4.294,0,0,1,1.686-.234l6.775.034h.019A3.728,3.728,0,0,0,26.08.534L19.305.5a11.379,11.379,0,0,0-4.8.9,8.284,8.284,0,0,0-4.117,4.055,1.246,1.246,0,0,0,2.243,1.086,5.776,5.776,0,0,1,2.9-2.871,8.915,8.915,0,0,1,3.762-.678l6.775.034A1.236,1.236,0,0,1,26.061,5.5h-.006L19.28,5.464a6.442,6.442,0,0,0-2.727.456,3.443,3.443,0,0,0-1.683,1.708l-4.748,9.8a14.976,14.976,0,0,0-2.94.353l.557-1.15A1.246,1.246,0,1,0,5.5,15.548L3.713,19.229a7.98,7.98,0,0,0-2.5,2.663c-1.708,2.958-1.6,7.134.29,11.456a21.3,21.3,0,0,0,8.542,9.8,13.931,13.931,0,0,0,11.025,1.688,12.92,12.92,0,0,0,7.181-5.989,14.279,14.279,0,0,0,1.471-3.566c.24-.693.2-1.175.808-1.67a2.458,2.458,0,0,1,1.373-.626,2.524,2.524,0,0,1,1.373.626c.613.5.563.961.808,1.67a14.265,14.265,0,0,0,1.471,3.567,12.92,12.92,0,0,0,7.181,5.989,13.929,13.929,0,0,0,11.024-1.688,21.3,21.3,0,0,0,8.543-9.8c1.892-4.322,2-8.5.29-11.456ZM3.367,23.139a5.636,5.636,0,0,1,1.958-1.987c2.306-1.376,5.158-1.436,7.748-1.065a24.04,24.04,0,0,1,8.551,3,11.664,11.664,0,0,1,5.566,6.289,21.724,21.724,0,0,0-12.169-6.167c-4.86-.614-8.188,1.3-9.129,5.251a15.237,15.237,0,0,0,.259,7.9,19.664,19.664,0,0,1-2.37-4.008c-1.571-3.589-1.722-6.946-.415-9.211ZM20.025,42.547a9.723,9.723,0,0,1-4.607.082C8.859,40.347,7.135,34,8.317,29.04c.8-3.34,3.915-3.669,6.392-3.356,5.877.742,12.5,5.528,12.585,9.052a11.913,11.913,0,0,1-1.2,2.866,10.115,10.115,0,0,1-6.063,4.944ZM47.244,5.92a6.462,6.462,0,0,0-2.727-.456L37.743,5.5h-.006a1.236,1.236,0,0,1-.006-2.472L44.5,2.992a8.874,8.874,0,0,1,3.762.678,5.777,5.777,0,0,1,2.9,2.871l5.442,11.235a14.837,14.837,0,0,0-2.941-.354L48.927,7.628A3.443,3.443,0,0,0,47.244,5.92ZM60.017,32.35a19.664,19.664,0,0,1-2.37,4.008,15.239,15.239,0,0,0,.259-7.9C57.082,25,54.446,23.1,50.48,23.1H50.4A1.246,1.246,0,0,0,50.41,25.6h.071c2.773,0,4.456,1.159,5,3.445,1.181,4.957-.543,11.307-7.1,13.589a9.723,9.723,0,0,1-4.607-.082A10.115,10.115,0,0,1,37.709,37.6a11.893,11.893,0,0,1-1.2-2.866c.042-1.646,1.562-3.7,4.1-5.538a1.246,1.246,0,1,0-1.46-2.02,17.69,17.69,0,0,0-2.536,2.2,11.664,11.664,0,0,1,5.568-6.294,23.2,23.2,0,0,1,10.814-3.18c2.064-.033,5.777.343,7.443,3.229,1.308,2.265,1.157,5.622-.414,9.211Zm0,0" transform="translate(0 0)"/><path class="a" d="M63.483,77.511a1.245,1.245,0,0,0,1.636-.654h0a1.246,1.246,0,1,0-1.637.655Zm0,0" transform="translate(-54.912 -65.321)"/></g></svg>