<svg xmlns="http://www.w3.org/2000/svg" width="67.935" height="45.112" viewBox="0 0 67.935 45.112"><defs><style>.a{fill:#aba9a9;}</style></defs><g transform="translate(0 -0.498)"><path class="a" d="M67.416,25.2a4.116,4.116,0,0,0-1.963-1.715L56.875,5.774A8.822,8.822,0,0,0,52.49,1.457,12.086,12.086,0,0,0,47.376.5L40.241.534a4.067,4.067,0,0,0-2.625.941,3.964,3.964,0,0,0-1.364,3.591,3.892,3.892,0,0,0,.782,1.857,3.96,3.96,0,0,0,3.148,1.55h.02l7.214-.036a4.559,4.559,0,0,1,1.795.249,1.036,1.036,0,0,1,.5.558L55.8,21.817c-1.39-.108-2.768-.162-4.119-.162a55.143,55.143,0,0,0-13.14,1.618,4.158,4.158,0,0,0-2.6,1.927,3.813,3.813,0,0,0-.1,3.658,12.55,12.55,0,0,0-3.762,0,3.838,3.838,0,0,0,.274-.689,3.8,3.8,0,0,0-.37-2.97,4.159,4.159,0,0,0-2.594-1.927,55.16,55.16,0,0,0-13.141-1.618c-1.351,0-2.729.054-4.119.162l6.09-12.573a1.039,1.039,0,0,1,.5-.558,4.631,4.631,0,0,1,1.8-.249l7.213.036h.02A3.97,3.97,0,0,0,27.771.535L20.558.5a12.083,12.083,0,0,0-5.114.958,8.813,8.813,0,0,0-4.361,4.268,1.357,1.357,0,0,0,.433,1.731,1.327,1.327,0,0,0,1.931-.525,6.152,6.152,0,0,1,3.091-3.057,9.525,9.525,0,0,1,4.005-.722l7.176.036a1.36,1.36,0,0,1,.839.277,1.327,1.327,0,0,1,.43,1.5,1.3,1.3,0,0,1-1.237.854h-.007l-7.213-.036a6.876,6.876,0,0,0-2.9.485,3.67,3.67,0,0,0-1.792,1.819l-6.81,14.06c-1.078.145-2.148.32-3.2.526l2.419-4.995a1.327,1.327,0,0,0-2.388-1.157L2.481,23.485A4.117,4.117,0,0,0,.519,25.2a3.8,3.8,0,0,0-.371,2.97,4.125,4.125,0,0,0,3.423,2.884c-.007,3.211.025,6.495.961,9.182,1.216,3.493,3.773,5.3,7.6,5.364.356.006.71.01,1.066.01,4.373,0,8.73-.544,11.788-3.549a12.777,12.777,0,0,0,3.375-6.533c1.034-3.644,3.4-4.158,5.606-4.158s4.572.514,5.606,4.157a12.779,12.779,0,0,0,3.375,6.534c3.058,3.005,7.415,3.549,11.788,3.549q.533,0,1.066-.01c3.827-.066,6.383-1.871,7.6-5.364.936-2.688.969-5.973.961-9.184a4.123,4.123,0,0,0,3.423-2.882,3.8,3.8,0,0,0-.37-2.97ZM2.7,27.439a1.154,1.154,0,0,1,.117-.912,1.472,1.472,0,0,1,.94-.679,51.835,51.835,0,0,1,25,0,1.475,1.475,0,0,1,.94.679,1.156,1.156,0,0,1,.117.912,1.554,1.554,0,0,1-1.879.954,47.98,47.98,0,0,0-23.35,0A1.554,1.554,0,0,1,2.7,27.439ZM23.126,40.168c-2.463,2.421-6.158,2.863-10.948,2.779-5.54-.1-5.968-4.9-5.952-12.216a45.164,45.164,0,0,1,4.461-.783,46.878,46.878,0,0,1,11.134,0c1.468.18,2.958.443,4.442.778-.1,3.293-.679,7.026-3.137,9.442Zm27.18-33.9a6.869,6.869,0,0,0-2.9-.485L40.19,5.82h-.007a1.3,1.3,0,0,1-1.237-.853,1.327,1.327,0,0,1,.429-1.5,1.367,1.367,0,0,1,.839-.277l7.176-.036a9.441,9.441,0,0,1,4.005.721,6.152,6.152,0,0,1,3.091,3.057l7.625,15.742c-1.055-.205-2.125-.381-3.2-.526L52.1,8.088a3.669,3.669,0,0,0-1.792-1.818Zm14.928,21.17a1.555,1.555,0,0,1-1.879.954,48.336,48.336,0,0,0-5.486-1.042,1.358,1.358,0,0,0-1.5.951,1.328,1.328,0,0,0,1.109,1.675c1.4.179,2.814.433,4.225.753.016,7.322-.412,12.121-5.952,12.217-4.79.082-8.484-.358-10.948-2.779s-3.035-6.149-3.137-9.442c1.395-.316,2.8-.566,4.177-.744a1.349,1.349,0,0,0,1.188-1.364,1.327,1.327,0,0,0-1.5-1.272,48.249,48.249,0,0,0-5.534,1.048,1.555,1.555,0,0,1-1.88-.954,1.157,1.157,0,0,1,.117-.912,1.477,1.477,0,0,1,.94-.68,51.843,51.843,0,0,1,25,0,1.474,1.474,0,0,1,.939.679,1.154,1.154,0,0,1,.117.912Zm0,0" transform="translate(0 0)"/><path class="a" d="M63.332,77.556a1.327,1.327,0,0,0,1.913-.518h0a1.308,1.308,0,0,0-.214-1.5,1.329,1.329,0,1,0-1.7,2.02Zm0,0" transform="translate(-54.406 -64.718)"/><path class="a" d="M380.828,199.945h0a1.31,1.31,0,0,0-1.248.863,1.33,1.33,0,1,0,1.249-.863Zm0,0" transform="translate(-329.147 -172.983)"/></g></svg>