<svg xmlns="http://www.w3.org/2000/svg" width="25.041" height="25.041" viewBox="0 0 25.041 25.041"><defs><style>.a{fill:#fff;}</style></defs><g transform="translate(0 0)"><path class="a" d="M23.476,14.085v5.478a3.913,3.913,0,0,1-3.913,3.913H5.478a3.913,3.913,0,0,1-3.913-3.913V5.478A3.913,3.913,0,0,1,5.478,1.565h4.7V0h-4.7A5.478,5.478,0,0,0,0,5.478V19.563a5.478,5.478,0,0,0,5.478,5.478H19.563a5.478,5.478,0,0,0,5.478-5.478V14.085Z"/><path class="a" d="M176,39.976h1.565v-6.26c0-6.151,5.259-6.26,5.478-6.26H188.2l-4.14,4.14,1.1,1.1,5.478-5.478a.782.782,0,0,0,0-1.1l-5.478-5.478-1.111,1.111,4.147,4.14h-5.157c-.07,0-7.043.086-7.043,7.825Z" transform="translate(-167.392 -19.631)"/></g></svg>