<svg xmlns="http://www.w3.org/2000/svg" width="20.498" height="20.498" viewBox="0 0 20.498 20.498"><g transform="translate(0 6.918)"><g transform="translate(0)"><path d="M13.165,180.645c-.216-.13-.437-.26-.658-.387a5.728,5.728,0,0,0,0-1.334c.222-.128.443-.258.658-.387a.864.864,0,0,0,.35-1.065h0l-.471-1.138a.864.864,0,0,0-1-.506c-.243.06-.491.125-.739.191a5.73,5.73,0,0,0-.943-.943c.066-.247.131-.5.191-.739a.864.864,0,0,0-.506-1l-1.138-.471a.864.864,0,0,0-1.065.35c-.129.215-.26.436-.387.658a5.73,5.73,0,0,0-1.334,0c-.128-.222-.258-.443-.387-.658a.864.864,0,0,0-1.065-.35l-1.138.471a.864.864,0,0,0-.506,1c.061.244.125.492.191.739a5.726,5.726,0,0,0-.943.943c-.248-.067-.5-.131-.739-.191a.864.864,0,0,0-1,.506l-.471,1.138a.864.864,0,0,0,.35,1.065c.215.129.436.26.658.387a5.732,5.732,0,0,0,0,1.334c-.222.128-.443.258-.658.387a.864.864,0,0,0-.35,1.065l.471,1.138a.864.864,0,0,0,1,.506c.243-.06.491-.125.739-.191a5.73,5.73,0,0,0,.943.943c-.066.248-.131.5-.191.739a.864.864,0,0,0,.506,1l1.138.471a.851.851,0,0,0,.326.065.864.864,0,0,0,.739-.415c.128-.214.258-.435.387-.658a5.739,5.739,0,0,0,1.334,0c.127.221.257.442.387.658a.864.864,0,0,0,1.065.35l1.138-.471a.864.864,0,0,0,.506-1c-.06-.242-.124-.49-.191-.739a5.733,5.733,0,0,0,.943-.943c.247.066.5.131.739.191a.864.864,0,0,0,1-.506l.471-1.138A.864.864,0,0,0,13.165,180.645Zm-.95,1.806c-.234-.059-.472-.12-.709-.184a.857.857,0,0,0-.9.3,4.81,4.81,0,0,1-.839.84.857.857,0,0,0-.3.9c.064.238.126.476.184.708L8.6,185.45c-.124-.208-.249-.42-.371-.631a.857.857,0,0,0-.849-.425,4.816,4.816,0,0,1-1.187,0,.857.857,0,0,0-.85.425c-.123.214-.248.426-.371.631l-1.046-.433c.058-.233.12-.471.184-.709a.857.857,0,0,0-.3-.9,4.812,4.812,0,0,1-.84-.839.857.857,0,0,0-.9-.3c-.237.064-.475.126-.708.184l-.433-1.046c.207-.124.419-.248.631-.371a.857.857,0,0,0,.425-.849,4.816,4.816,0,0,1,0-1.187.857.857,0,0,0-.425-.85c-.212-.122-.425-.247-.631-.371l.433-1.046c.233.058.471.12.709.184a.857.857,0,0,0,.9-.3,4.81,4.81,0,0,1,.839-.84.857.857,0,0,0,.3-.9c-.064-.236-.126-.474-.184-.708l1.046-.433c.123.206.248.418.371.631a.857.857,0,0,0,.849.425,4.807,4.807,0,0,1,1.187,0,.857.857,0,0,0,.85-.425c.122-.212.247-.425.371-.631l1.046.433c-.059.234-.12.472-.184.709a.857.857,0,0,0,.3.9,4.812,4.812,0,0,1,.84.839.857.857,0,0,0,.9.3c.237-.064.475-.126.708-.184l.433,1.046c-.206.124-.418.248-.631.371a.857.857,0,0,0-.425.849,4.811,4.811,0,0,1,0,1.187.857.857,0,0,0,.425.85c.212.122.424.247.631.371Z" transform="translate(0 -172.801)"/></g></g><g transform="translate(3.663 10.581)"><path d="M97.51,266.224h0a3.131,3.131,0,1,0-1.692,4.086A3.131,3.131,0,0,0,97.51,266.223Zm-2.043,3.238a2.209,2.209,0,1,1,1.2-2.887A2.2,2.2,0,0,1,95.466,269.461Z" transform="translate(-91.494 -264.293)"/></g><g transform="translate(10.083)"><path d="M261.644,4.041c-.158-.024-.321-.047-.485-.069a4.267,4.267,0,0,0-.329-.793c.1-.131.2-.262.295-.392a.731.731,0,0,0-.071-.946l-.633-.633a.731.731,0,0,0-.946-.071c-.13.1-.261.195-.392.294a4.271,4.271,0,0,0-.793-.329c-.022-.164-.045-.326-.069-.485A.731.731,0,0,0,257.5,0h-.9a.731.731,0,0,0-.719.618c-.024.158-.047.321-.069.485a4.269,4.269,0,0,0-.793.329c-.131-.1-.262-.2-.391-.294a.731.731,0,0,0-.946.071l-.633.633a.731.731,0,0,0-.071.946c.1.129.194.26.294.391a4.274,4.274,0,0,0-.329.793c-.164.022-.327.045-.485.069a.731.731,0,0,0-.618.719v.895a.731.731,0,0,0,.618.719c.158.024.321.047.485.069a4.274,4.274,0,0,0,.329.793c-.1.131-.2.262-.295.392a.731.731,0,0,0,.071.946l.633.633a.731.731,0,0,0,.946.071c.129-.1.261-.195.391-.294a4.271,4.271,0,0,0,.793.329c.022.164.045.326.069.485a.731.731,0,0,0,.719.618h.9a.731.731,0,0,0,.719-.619c.024-.158.047-.321.069-.485a4.267,4.267,0,0,0,.793-.329c.131.1.262.2.391.295a.731.731,0,0,0,.946-.071l.633-.633a.731.731,0,0,0,.071-.946c-.1-.129-.194-.261-.294-.391a4.273,4.273,0,0,0,.329-.793c.164-.022.326-.045.485-.069a.731.731,0,0,0,.619-.719V4.76A.731.731,0,0,0,261.644,4.041Zm-.253,1.49c-.144.021-.291.041-.438.06a.725.725,0,0,0-.607.526,3.391,3.391,0,0,1-.321.774.725.725,0,0,0,.057.8c.09.117.18.236.267.352l-.457.457c-.117-.087-.235-.177-.352-.267a.725.725,0,0,0-.8-.057,3.4,3.4,0,0,1-.774.321.725.725,0,0,0-.526.607c-.019.147-.039.294-.06.438h-.646c-.021-.144-.041-.291-.06-.438a.725.725,0,0,0-.526-.607,3.393,3.393,0,0,1-.774-.321.725.725,0,0,0-.8.057c-.117.09-.235.18-.352.267l-.457-.457c.087-.117.177-.235.267-.352a.725.725,0,0,0,.057-.8,3.394,3.394,0,0,1-.321-.774.725.725,0,0,0-.607-.526c-.147-.019-.294-.039-.438-.06V4.885c.144-.021.291-.041.438-.06a.725.725,0,0,0,.607-.526,3.393,3.393,0,0,1,.321-.774.725.725,0,0,0-.057-.8c-.09-.118-.18-.236-.267-.352l.457-.457c.117.087.235.177.352.267a.725.725,0,0,0,.8.057,3.4,3.4,0,0,1,.774-.321.725.725,0,0,0,.526-.607c.019-.147.039-.294.06-.438h.646c.021.144.041.29.06.438a.725.725,0,0,0,.526.607,3.4,3.4,0,0,1,.774.321.725.725,0,0,0,.8-.057c.117-.09.235-.18.352-.267l.457.457c-.087.117-.177.235-.267.352a.725.725,0,0,0-.057.8,3.4,3.4,0,0,1,.321.774.725.725,0,0,0,.607.526c.147.019.294.039.438.06Z" transform="translate(-251.847)"/></g><g transform="translate(13.433 3.35)"><path d="M337.381,83.675a1.858,1.858,0,1,0,1.858,1.858A1.86,1.86,0,0,0,337.381,83.675Zm0,2.89a1.032,1.032,0,1,1,1.032-1.032A1.033,1.033,0,0,1,337.381,86.565Z" transform="translate(-335.523 -83.675)"/></g></svg>