<svg xmlns="http://www.w3.org/2000/svg" width="25.048" height="24.874" viewBox="0 0 25.048 24.874"><g transform="translate(0 0)"><path d="M24.826,296.24a1.665,1.665,0,0,0-2.266-.607l-4.734,2.735a1.675,1.675,0,0,0-1.061-.852l-6.127-1.407a3.71,3.71,0,0,0-2.22.172L5.8,297.327V296.7a.415.415,0,0,0-.415-.415H.415A.415.415,0,0,0,0,296.7v7.877a.415.415,0,0,0,.415.415H5.389a.415.415,0,0,0,.415-.415V304.2l6.712.671q.183.018.367.018a3.758,3.758,0,0,0,1.976-.563l9.362-5.821a1.661,1.661,0,0,0,.606-2.265ZM4.975,304.158H.829v-7.048H4.975ZM23.793,297.8l-9.372,5.83a2.929,2.929,0,0,1-1.822.423l-6.8-.677v-5.15l2.922-1.169a2.886,2.886,0,0,1,1.727-.134l6.112,1.4a.832.832,0,0,1,.607.689.407.407,0,0,0,.005.042.828.828,0,0,1-.026.284.839.839,0,0,1-1.044.58l-4.006-.779a.415.415,0,0,0-.158.814l3.98.773a1.659,1.659,0,0,0,2.085-1.5l4.968-2.87a.829.829,0,0,1,1.244.714.847.847,0,0,1-.427.733Zm0,0" transform="translate(0 -280.113)"/><path d="M33.244,410.663a1.244,1.244,0,1,1,1.244-1.244A1.244,1.244,0,0,1,33.244,410.663Zm0-1.658a.415.415,0,1,0,.415.415A.415.415,0,0,0,33.244,409.005Zm0,0" transform="translate(-30.342 -387.033)"/><path d="M296.415,168.176a.415.415,0,0,0-.415.415v4.146a.415.415,0,1,0,.829,0v-4.146A.415.415,0,0,0,296.415,168.176Zm0,0" transform="translate(-280.661 -159.47)"/><path d="M224.328,168.182a.415.415,0,0,0-.323.489l.829,4.146a.415.415,0,0,0,.406.332.392.392,0,0,0,.083-.008.415.415,0,0,0,.323-.489l-.829-4.146A.415.415,0,0,0,224.328,168.182Zm0,0" transform="translate(-212.389 -159.467)"/><path d="M352.333,172.918a.4.4,0,0,0,.083.008.415.415,0,0,0,.406-.332l.829-4.146a.415.415,0,1,0-.813-.163l-.829,4.146A.415.415,0,0,0,352.333,172.918Zm0,0" transform="translate(-333.76 -159.245)"/><path d="M145,4.321h-6.633v-2.9a1.244,1.244,0,0,0-2.487,0v2.9h-6.633a1.244,1.244,0,0,0,0,2.487h.072l1.338,7.022a2.075,2.075,0,0,0,2.036,1.684h8.863a2.075,2.075,0,0,0,2.036-1.684l1.338-7.022H145a1.244,1.244,0,0,0,0-2.487Zm-8.291-2.9a.415.415,0,0,1,.829,0v5.8a.415.415,0,1,1-.829,0Zm-7.877,4.146a.405.405,0,0,1,.127-.3.4.4,0,0,1,.288-.119h6.633V5.98h-6.633A.415.415,0,0,1,128.829,5.565Zm13.945,8.11a1.244,1.244,0,0,1-1.222,1.011h-8.863a1.244,1.244,0,0,1-1.222-1.01l-1.307-6.866h5.718v.415a1.244,1.244,0,1,0,2.487,0V6.809h5.718Zm2.51-7.815A.4.4,0,0,1,145,5.98h-6.633V5.151H145a.415.415,0,0,1,.415.415A.405.405,0,0,1,145.285,5.86Zm0,0" transform="translate(-121.367 -0.176)"/></g></svg>