<svg xmlns="http://www.w3.org/2000/svg" width="22.148" height="20.119" viewBox="0 0 22.148 20.119"><g transform="translate(20.227 13.206)"><g transform="translate(0 0)"><path d="M469.38,329.924l-1.056-1.047a.433.433,0,1,0-.609.614l1.056,1.047a.433.433,0,0,0,.609-.614Z" transform="translate(-467.587 -328.751)"/></g></g><g transform="translate(19.15 12.134)"><path d="M443.414,304.078a.433.433,0,0,0-.612,0h0a.433.433,0,1,0,.613,0Z" transform="translate(-442.675 -303.951)"/></g><g transform="translate(0 0)"><g transform="translate(0)"><path d="M16.2,37.717l4.2-4.2a1.629,1.629,0,0,0-.786-2.741,1.631,1.631,0,0,0-1.2-2.294,1.628,1.628,0,0,0-1.27-2.116,1.631,1.631,0,0,0-2.327-1.945l-.042-.045a2.887,2.887,0,0,0-2.107-.917h-3.4a.433.433,0,0,0-.433.433v.567a1.966,1.966,0,0,0,.112.656,1.631,1.631,0,0,0-2.173,2.018A1.63,1.63,0,0,0,5.5,29.253a1.63,1.63,0,0,0-1.2,2.293,1.631,1.631,0,0,0-.787,2.742l.863.863L.126,39.4a.433.433,0,1,0,.612.612l4.29-4.29a1.63,1.63,0,0,0,2.434-1.484l.066,0a1.629,1.629,0,0,0,1.63-1.63c0-.022,0-.044,0-.066l.065,0a1.629,1.629,0,0,0,1.63-1.63c0-.022,0-.044,0-.066l.065,0a1.63,1.63,0,0,0,1.261-2.663l2.872-2.872A.765.765,0,1,1,16.131,26.4l-.423.423-1.536,1.536a.433.433,0,1,0,.612.612l1.536-1.536A.765.765,0,1,1,17.4,28.516l-.424.424-1.113,1.113a.433.433,0,1,0,.612.612l1.113-1.113a.765.765,0,1,1,1.082,1.082l-.581.581-.532.532a.433.433,0,1,0,.612.612l.532-.532a.765.765,0,0,1,1.082,1.082l-4.2,4.2a5.861,5.861,0,0,1-3.944,1.718.433.433,0,0,0-.291.127L7.475,42.843a.433.433,0,1,0,.613.611l2.852-2.862a4.022,4.022,0,0,0,2.443.628l2.232,2.232a.433.433,0,0,0,.612-.612l-2.373-2.373a.433.433,0,0,0-.341-.125l-.137.011a3.158,3.158,0,0,1-1.805-.393l.278-.279A6.723,6.723,0,0,0,16.2,37.717ZM6.375,34.845a.765.765,0,0,1-1.082,0L4.124,33.676a.765.765,0,1,1,1.082-1.082l1.169,1.169A.766.766,0,0,1,6.375,34.845Zm1.694-1.694a.766.766,0,0,1-1.082,0L5.818,31.981,5.237,31.4a.765.765,0,1,1,1.082-1.082l1.75,1.75h0a.765.765,0,0,1,0,1.082Zm1.694-1.694a.766.766,0,0,1-1.082,0L6.507,29.283A.765.765,0,0,1,7.589,28.2l.991.991,1.183,1.183h0a.765.765,0,0,1,0,1.082Zm1.694-1.694a.766.766,0,0,1-1.082,0L8.2,27.589h0l-.423-.423A.765.765,0,0,1,8.86,26.083l2.6,2.6a.765.765,0,0,1,0,1.082Zm.114-2.192-1.188-1.188a1.98,1.98,0,0,0,.414.044h.01l1.187-.006a.433.433,0,0,0,0-.865h0l-1.187.006H10.8a1.1,1.1,0,0,1-1.1-1.1v-.135h2.965a2.019,2.019,0,0,1,1.473.642l.018.019Z" transform="translate(0 -23.462)"/></g></g></svg>